<svg width="24" height="24" viewBox="0 0 24 24" fill="none" xmlns="http://www.w3.org/2000/svg">
<path fill-rule="evenodd" clip-rule="evenodd" d="M12.8999 1.49998C15.2999 1.64998 17.5499 2.84998 19.1999 4.49998C21.1499 6.59998 22.1999 9.14998 22.1999 12.15C22.1999 14.55 21.2999 16.8 19.7999 18.75C18.2999 20.55 16.1999 21.9 13.7999 22.35C11.3999 22.8 8.99994 22.5 6.89994 21.3C4.79994 20.1 3.14994 18.3 2.24994 16.05C1.34994 13.8 1.19994 11.25 1.94994 8.99998C2.69994 6.59998 4.04994 4.64998 6.14994 3.29998C8.09994 1.94998 10.4999 1.34998 12.8999 1.49998ZM13.6499 20.85C15.5999 20.4 17.3999 19.35 18.7499 17.7C19.9499 16.05 20.6999 14.1 20.5499 12C20.5499 9.59998 19.6499 7.19998 17.9999 5.54998C16.4999 4.04998 14.6999 3.14998 12.5999 2.99998C10.6499 2.84998 8.54994 3.29998 6.89994 4.49998C5.24994 5.69998 4.04994 7.34998 3.44994 9.44998C2.84994 11.4 2.84994 13.5 3.74994 15.45C4.64994 17.4 5.99994 18.9 7.79994 19.95C9.59994 21 11.6999 21.3 13.6499 20.85ZM11.8499 11.25L15.4499 7.49998L16.4999 8.54998L12.8999 12.3L16.4999 16.05L15.4499 17.1L11.8499 13.35L8.24994 17.1L7.19994 16.05L10.7999 12.3L7.19994 8.54998L8.24994 7.49998L11.8499 11.25Z" fill="black"/>
</svg>
