<svg xmlns="http://www.w3.org/2000/svg" width="67" height="64" viewBox="0 0 67 64" fill="none">
  <path d="M31.5403 1.61761C31.9752 -0.516628 35.0248 -0.516639 35.4597 1.6176L38.9165 18.5823C39.1807 19.8785 40.6079 20.5658 41.7859 19.9642L57.2048 12.0895C59.1445 11.0988 61.046 13.4831 59.6485 15.1538L48.5403 28.4338C47.6915 29.4485 48.044 30.9928 49.249 31.5388L65.0191 38.6839C67.0031 39.5828 66.3245 42.556 64.147 42.5051L46.8384 42.1002C45.5159 42.0693 44.5282 43.3078 44.8527 44.5902L49.0989 61.3748C49.6331 63.4863 46.8854 64.8095 45.5676 63.0754L35.0924 49.2905C34.292 48.2373 32.708 48.2373 31.9076 49.2905L21.4324 63.0754C20.1146 64.8095 17.3669 63.4863 17.9011 61.3748L22.1473 44.5902C22.4718 43.3078 21.4841 42.0693 20.1616 42.1002L2.85305 42.5051C0.675553 42.556 -0.00307772 39.5828 1.98088 38.6839L17.751 31.5388C18.956 30.9928 19.3085 29.4485 18.4597 28.4338L7.35147 15.1538C5.954 13.4832 7.85545 11.0988 9.79521 12.0895L25.2141 19.9642C26.3921 20.5658 27.8193 19.8785 28.0835 18.5823L31.5403 1.61761Z" fill="url(#paint0_linear_303_1719)"/>
  <defs>
    <linearGradient id="paint0_linear_303_1719" x1="33.5" y1="-8" x2="33.5" y2="75" gradientUnits="userSpaceOnUse">
      <stop stop-color="#ff0000"/>
      <stop offset="1" stop-color="#6EF48C" stop-opacity="0"/>
    </linearGradient>
  </defs>
</svg>